# xmcd CD database file
#
# Track frame offsets:
#	150
#	11215
#	23521
#	34556
#	47259
#	59924
#	71077
#	83031
#	93832
#	104630
#	119830
#	133648
#	146469
#	160478
#	173585
#	182464
#	193906
#	206727
#	218347
#	232349
#	247030
#	259308
#
# Disc length: 3627 seconds
#
# Revision: 1
# Processed by: cddbd v1.5.2PL0 Copyright (c) Steve Scherf et al.
# Submitted via: CDex 1.51
#
DISCID=430e2916
DTITLE=Sonny Rollins - Professor Bop
DYEAR=2003
DGENRE=Jazz
TTITLE0=Professor bop
TTITLE1=Capitolizing
TTITLE2=Goof square
TTITLE3=Don't blame me
TTITLE4=Audobon (audobahn)
TTITLE5=Bee jay
TTITLE6=St. louis blues
TTITLE7=Then you'll be boppin' too
TTITLE8=Real crazy
TTITLE9=When lovers they lose
TTITLE10=Bouncing with bud
TTITLE11=52nd street theme
TTITLE12=Wail
TTITLE13=Dance of the infidels
TTITLE14=Goof square-2
TTITLE15=Goof square-4
TTITLE16=Audobon-1
TTITLE17=Bee jay-3
TTITLE18=Bouncing with bud-0
TTITLE19=Bouncing with bud-1
TTITLE20=Wail-0
TTITLE21=Dance of the infidels-0
EXTD=YEAR: 2003
EXTT0=
EXTT1=
EXTT2=
EXTT3=
EXTT4=
EXTT5=
EXTT6=
EXTT7=
EXTT8=
EXTT9=
EXTT10=
EXTT11=
EXTT12=
EXTT13=
EXTT14=
EXTT15=
EXTT16=
EXTT17=
EXTT18=
EXTT19=
EXTT20=
EXTT21=
PLAYORDER=
